<svg width="56" height="56" viewBox="0 0 56 56" fill="none" xmlns="http://www.w3.org/2000/svg">
<g clip-path="url(#clip0_22_6)">
<path d="M28.0001 0.0349731C20.4052 0.0349731 19.4528 0.067193 16.47 0.203233C13.4935 0.339022 11.4606 0.811831 9.68177 1.50302C7.84282 2.21768 6.28327 3.17396 4.72864 4.72859C3.17393 6.28322 2.21765 7.84293 1.50307 9.68188C0.811717 11.4606 0.339075 13.4935 0.203119 16.47C0.0670793 19.4528 0.0349426 20.4052 0.0349426 28.0001C0.0349426 35.5948 0.0670793 36.5472 0.203119 39.53C0.339075 42.5066 0.811717 44.5394 1.50307 46.3182C2.21774 48.1571 3.17401 49.7166 4.72864 51.2714C6.28336 52.8261 7.84282 53.7824 9.68177 54.497C11.4606 55.1882 13.4935 55.6609 16.47 55.7968C19.4528 55.9328 20.4052 55.9651 28.0001 55.9651C35.5948 55.9651 36.5472 55.9328 39.53 55.7968C42.5065 55.661 44.5394 55.1882 46.3181 54.497C48.1571 53.7824 49.7166 52.8261 51.2714 51.2714C52.826 49.7166 53.7823 48.1571 54.497 46.3182C55.1882 44.5394 55.661 42.5066 55.7968 39.53C55.9328 36.5472 55.965 35.5948 55.965 28.0001C55.965 20.4052 55.9328 19.4528 55.7968 16.47C55.661 13.4935 55.1882 11.4606 54.497 9.68188C53.7823 7.84293 52.826 6.28322 51.2714 4.72859C49.7166 3.17396 48.1571 2.21768 46.3181 1.50302C44.5394 0.811831 42.5065 0.339022 39.53 0.203233C36.5472 0.067193 35.5948 0.0349731 28.0001 0.0349731ZM28.0001 5.07368C35.4669 5.07368 36.3514 5.10224 39.3003 5.23678C42.0269 5.36108 43.5076 5.81666 44.4929 6.19963C45.7984 6.70699 46.7299 7.31292 47.7084 8.29151C48.6871 9.2701 49.293 10.2017 49.8004 11.507C50.1833 12.4924 50.6389 13.9732 50.7632 16.6997C50.8978 19.6486 50.9263 20.5331 50.9263 28C50.9263 35.467 50.8978 36.3515 50.7632 39.3003C50.6389 42.0269 50.1833 43.5076 49.8004 44.4929C49.293 45.7984 48.6871 46.7299 47.7084 47.7084C46.7299 48.6871 45.7983 49.293 44.493 49.8004C43.5076 50.1834 42.0268 50.639 39.3003 50.7633C36.3519 50.8978 35.4675 50.9264 28 50.9264C20.5325 50.9264 19.6482 50.8978 16.6997 50.7632C13.9731 50.639 12.4924 50.1834 11.5071 49.8004C10.2016 49.293 9.27007 48.6871 8.29156 47.7084C7.31298 46.7299 6.70696 45.7983 6.1996 44.493C5.81663 43.5076 5.36113 42.0268 5.23675 39.3003C5.10221 36.3515 5.07365 35.467 5.07365 28C5.07365 20.5331 5.10221 19.6486 5.23675 16.6997C5.36113 13.9731 5.81663 12.4924 6.1996 11.5071C6.70696 10.2016 7.31298 9.2701 8.29148 8.29159C9.27007 7.31292 10.2017 6.70699 11.507 6.19963C12.4924 5.81666 13.9732 5.36108 16.6997 5.23678C19.6485 5.10224 20.5331 5.07368 28.0001 5.07368Z" fill="black"/>
<path d="M28.0001 37.3217C22.8517 37.3217 18.6783 33.1483 18.6783 28.0001C18.6783 22.8518 22.8517 18.6783 28.0001 18.6783C33.1482 18.6783 37.3217 22.8518 37.3217 28.0001C37.3217 33.1483 33.1482 37.3217 28.0001 37.3217ZM28.0001 13.6396C20.0689 13.6396 13.6396 20.0689 13.6396 28.0001C13.6396 35.9311 20.0689 42.3605 28.0001 42.3605C35.9311 42.3605 42.3604 35.9311 42.3604 28.0001C42.3604 20.0689 35.9311 13.6396 28.0001 13.6396ZM46.2836 13.0722C46.2836 14.9257 44.7811 16.428 42.9278 16.428C41.0745 16.428 39.572 14.9257 39.572 13.0722C39.572 11.2189 41.0745 9.71637 42.9278 9.71637C44.7811 9.71637 46.2836 11.2189 46.2836 13.0722Z" fill="black"/>
</g>
<defs>
<clipPath id="clip0_22_6">
<rect width="56" height="56" fill="white"/>
</clipPath>
</defs>
</svg>
