<svg width="56" height="54" viewBox="0 0 56 54" fill="none" xmlns="http://www.w3.org/2000/svg">
<g clip-path="url(#clip0_5_21)">
<path d="M28.0086 0C16.8725 0 13.6156 0.0114882 12.9825 0.0640054C10.6972 0.25397 9.27512 0.613796 7.72586 1.38514C6.53191 1.97801 5.5903 2.66525 4.66099 3.62861C2.96854 5.38548 1.94281 7.5469 1.57149 10.1161C1.39097 11.3634 1.33845 11.6178 1.32778 17.9888C1.32368 20.1125 1.32778 22.9074 1.32778 26.6562C1.32778 37.7833 1.34009 41.0369 1.39343 41.6688C1.57806 43.8925 1.92681 45.2916 2.66533 46.822C4.07673 49.7515 6.77235 51.9507 9.948 52.7712C11.0476 53.0543 12.262 53.2102 13.8211 53.2841C14.4817 53.3128 21.2146 53.3333 27.9516 53.3333C34.6886 53.3333 41.4255 53.3251 42.0697 53.2923C43.875 53.2074 44.9233 53.0666 46.0823 52.7671C47.657 52.3633 49.1244 51.6207 50.3823 50.591C51.6402 49.5613 52.6581 48.2694 53.365 46.8056C54.0892 45.3121 54.4564 43.8597 54.6226 41.752C54.6587 41.2925 54.6738 33.966 54.6738 26.6492C54.6738 19.3313 54.6574 12.0182 54.6213 11.5587C54.4531 9.417 54.0859 7.97688 53.3383 6.4547C52.725 5.20865 52.0439 4.27811 51.0551 3.32664C49.2908 1.64116 47.1327 0.615437 44.5606 0.244534C43.3145 0.0644157 43.0663 0.0110779 36.6904 0H28.0086Z" fill="black"/>
<path d="M27.9963 6.97498C22.6477 6.97498 21.9765 6.99836 19.8758 7.09396C17.7792 7.18997 16.3481 7.52189 15.0959 8.00891C13.8006 8.51193 12.7019 9.1848 11.6072 10.2799C10.5117 11.3745 9.83886 12.4733 9.3342 13.7682C8.84595 15.0208 8.51362 16.4523 8.41925 18.5481C8.3257 20.6487 8.30109 21.3204 8.30109 26.669C8.30109 32.0175 8.32488 32.6867 8.42007 34.7874C8.51649 36.884 8.84841 38.3151 9.33502 39.5673C9.83845 40.8626 10.5113 41.9613 11.6064 43.056C12.7006 44.1515 13.7994 44.826 15.0939 45.329C16.3469 45.816 17.7784 46.1479 19.8746 46.2439C21.9753 46.3395 22.6461 46.3629 27.9942 46.3629C33.3432 46.3629 34.0124 46.3395 36.1131 46.2439C38.2097 46.1479 39.6424 45.816 40.8954 45.329C42.1903 44.826 43.2874 44.1515 44.3817 43.056C45.4772 41.9613 46.15 40.8626 46.6547 39.5677C47.1388 38.3151 47.4712 36.8836 47.5696 34.7878C47.664 32.6871 47.6886 32.0175 47.6886 26.669C47.6886 21.3204 47.664 20.6492 47.5696 18.5485C47.4712 16.4519 47.1388 15.0208 46.6547 13.7686C46.15 12.4733 45.4772 11.3745 44.3817 10.2799C43.2862 9.18439 42.1907 8.51152 40.8942 8.00891C39.6387 7.52189 38.2068 7.18997 36.1102 7.09396C34.0095 6.99836 33.3407 6.97498 27.9905 6.97498H27.9963ZM26.2296 10.524C26.7539 10.5232 27.339 10.524 27.9963 10.524C33.2546 10.524 33.8778 10.5429 35.9543 10.6372C37.8745 10.725 38.9166 11.0459 39.6108 11.3154C40.5299 11.6724 41.1851 12.0991 41.874 12.7884C42.5633 13.4777 42.99 14.1341 43.3477 15.0532C43.6173 15.7466 43.9386 16.7887 44.026 18.7089C44.1203 20.785 44.1408 21.4086 44.1408 26.6644C44.1408 31.9203 44.1203 32.5439 44.026 34.62C43.9382 36.5401 43.6173 37.5823 43.3477 38.2757C42.9908 39.1947 42.5633 39.8491 41.874 40.538C41.1847 41.2273 40.5303 41.654 39.6108 42.011C38.9174 42.2818 37.8745 42.6018 35.9543 42.6896C33.8782 42.784 33.2546 42.8045 27.9963 42.8045C22.7376 42.8045 22.1144 42.784 20.0383 42.6896C18.1181 42.601 17.076 42.2801 16.3814 42.0106C15.4623 41.6536 14.8058 41.2269 14.1166 40.5376C13.4273 39.8483 13.0006 39.1935 12.6428 38.274C12.3732 37.5806 12.052 36.5385 11.9646 34.6183C11.8702 32.5423 11.8513 31.9186 11.8513 26.6595C11.8513 21.4004 11.8702 20.78 11.9646 18.704C12.0524 16.7838 12.3732 15.7417 12.6428 15.0475C12.9997 14.1284 13.4273 13.4719 14.1166 12.7826C14.8058 12.0934 15.4623 11.6667 16.3814 11.3089C17.0756 11.0381 18.1181 10.7181 20.0383 10.6298C21.8551 10.5478 22.5591 10.5232 26.2296 10.5191V10.524ZM38.5088 13.794C38.0413 13.794 37.5844 13.9326 37.1957 14.1924C36.8071 14.4521 36.5042 14.8212 36.3253 15.2531C36.1465 15.685 36.0997 16.1602 36.191 16.6186C36.2822 17.0771 36.5074 17.4982 36.838 17.8287C37.1686 18.1591 37.5897 18.3842 38.0482 18.4753C38.5067 18.5664 38.9819 18.5194 39.4137 18.3404C39.8455 18.1614 40.2146 17.8584 40.4742 17.4697C40.7337 17.0809 40.8722 16.6239 40.872 16.1565C40.872 14.8517 39.8135 13.7932 38.5088 13.7932V13.794ZM27.9963 16.5553C22.411 16.5553 17.8826 21.0837 17.8826 26.669C17.8826 32.2542 22.411 36.7806 27.9963 36.7806C33.5816 36.7806 38.1087 32.2542 38.1087 26.669C38.1087 21.0837 33.5816 16.5553 27.9963 16.5553ZM27.9963 20.1043C31.6216 20.1043 34.5609 23.0432 34.5609 26.669C34.5609 30.2943 31.6216 33.2336 27.9963 33.2336C24.3705 33.2336 21.4316 30.2943 21.4316 26.669C21.4316 23.0432 24.3705 20.1043 27.9963 20.1043Z" fill="white"/>
</g>
<defs>
<clipPath id="clip0_5_21">
<rect width="56" height="53.3333" fill="white"/>
</clipPath>
</defs>
</svg>
