<svg width="56" height="56" viewBox="0 0 56 56" fill="none" xmlns="http://www.w3.org/2000/svg">
<g clip-path="url(#clip0_5_19)">
<path d="M28 0.400024C43.2436 0.400024 55.6 12.7564 55.6 28C55.6 43.2436 43.2436 55.6 28 55.6C12.7564 55.6 0.399994 43.2436 0.399994 28C0.399994 12.7564 12.7564 0.400024 28 0.400024ZM37.5208 39.25C38.0284 37.6924 40.4068 22.1692 40.7008 19.1104C40.7896 18.184 40.4968 17.5684 39.9232 17.2936C39.2296 16.96 38.2024 17.1268 37.0108 17.5564C35.3764 18.1456 14.482 27.0172 13.2748 27.5308C12.13 28.0168 11.0476 28.5472 11.0476 29.3152C11.0476 29.8552 11.368 30.1588 12.2512 30.4744C13.1704 30.802 15.4852 31.504 16.852 31.8808C18.1684 32.2444 19.6672 31.9288 20.5072 31.4068C21.3976 30.8536 31.6732 23.9776 32.4112 23.3752C33.148 22.7728 33.736 23.5444 33.1336 24.148C32.5312 24.7504 25.4776 31.5964 24.5476 32.5444C23.4184 33.6952 24.22 34.888 24.9772 35.3656C25.8424 35.9104 32.0644 40.084 33.0016 40.7536C33.9388 41.4232 34.8892 41.7268 35.7592 41.7268C36.6292 41.7268 37.0876 40.5808 37.5208 39.25Z" fill="white"/>
</g>
<defs>
<clipPath id="clip0_5_19">
<rect width="56" height="56" fill="white"/>
</clipPath>
</defs>
</svg>
