<svg width="56" height="56" viewBox="0 0 56 56" fill="none" xmlns="http://www.w3.org/2000/svg">
<g clip-path="url(#clip0_5_26)">
<path d="M19.5685 0.468445H36.4602C51.8894 0.468445 55.5316 4.13932 55.5316 19.5685V36.4603C55.5316 51.8894 51.8607 55.5316 36.4315 55.5316H19.5398C4.11062 55.5316 0.468418 51.8607 0.468418 36.4316V19.5398C0.468418 4.13932 4.1393 0.468445 19.5685 0.468445Z" fill="black"/>
<mask id="mask0_5_26" style="mask-type:luminance" maskUnits="userSpaceOnUse" x="0" y="0" width="56" height="56">
<path d="M19.5685 0.468445H36.4602C51.8894 0.468445 55.5316 4.13932 55.5316 19.5685V36.4603C55.5316 51.8894 51.8607 55.5316 36.4315 55.5316H19.5398C4.11062 55.5316 0.468418 51.8607 0.468418 36.4316V19.5398C0.468418 4.13932 4.1393 0.468445 19.5685 0.468445Z" fill="white"/>
</mask>
<g mask="url(#mask0_5_26)">
<path d="M-0.965519 -0.965515H56.9655V56.9655H-0.965519V-0.965515Z" fill="white"/>
</g>
<path fill-rule="evenodd" clip-rule="evenodd" d="M45.5514 19.4251C45.8095 18.5647 45.5514 17.9625 44.3469 17.9625H40.3319C39.2994 17.9625 38.8406 18.5074 38.5825 19.1096C38.5825 19.1096 36.5463 24.0997 33.6497 27.3117C32.7033 28.2581 32.3018 28.5449 31.7856 28.5449C31.5275 28.5449 31.1547 28.2581 31.1547 27.3978V19.4251C31.1547 18.3926 30.8679 17.9625 30.0075 17.9625H23.6982C23.0673 17.9625 22.6658 18.45 22.6658 18.8802C22.6658 19.8553 24.0997 20.0847 24.2718 22.7805V28.6883C24.2718 29.9789 24.0423 30.2083 23.5261 30.2083C22.1782 30.2083 18.8515 25.2182 16.9013 19.4824C16.4998 18.4213 16.127 17.9625 15.0946 17.9625H11.0796C9.9324 17.9625 9.70297 18.5074 9.70297 19.1096C9.70297 20.1707 11.0509 25.4476 16.041 32.4165C19.3677 37.1772 24.0423 39.7583 28.2868 39.7583C30.8392 39.7583 31.1547 39.1847 31.1547 38.2096V34.5961C31.1547 33.449 31.3841 33.2195 32.2158 33.2195C32.818 33.2195 33.8218 33.5063 36.2021 35.8006C38.9266 38.5251 39.3855 39.7583 40.9054 39.7583H44.9205C46.0676 39.7583 46.6412 39.1847 46.297 38.0663C45.9242 36.9478 44.6337 35.3131 42.9129 33.3629C41.9665 32.2445 40.5613 31.0686 40.1598 30.4664C39.5575 29.6921 39.7296 29.3479 40.1598 28.6883C40.1598 28.6596 45.0639 21.7767 45.5514 19.4251Z" fill="black"/>
</g>
<defs>
<clipPath id="clip0_5_26">
<rect width="56" height="56" fill="white"/>
</clipPath>
</defs>
</svg>
