<svg width="56" height="57" viewBox="0 0 56 57" fill="none" xmlns="http://www.w3.org/2000/svg">
<g clip-path="url(#clip0_5_34)">
<path fill-rule="evenodd" clip-rule="evenodd" d="M47.8393 8.1718C42.5755 2.90497 35.575 0.0029603 28.1168 0C12.7492 0 0.241893 12.4992 0.235743 27.8627C0.233693 32.7736 1.51759 37.5675 3.95731 41.793L0.00196838 56.2324L14.7821 52.3576C18.8543 54.5774 23.4393 55.7473 28.1056 55.7492H28.1171C43.483 55.7492 55.9915 43.2485 55.9977 27.8849C56.0006 20.4395 53.1033 13.4386 47.8393 8.1718ZM28.1171 51.043H28.1076C23.9494 51.0414 19.8709 49.925 16.3131 47.8149L15.4668 47.3129L6.69617 49.6123L9.03726 41.066L8.4862 40.1898C6.16652 36.5023 4.94131 32.2403 4.94313 27.8644C4.94822 15.0949 15.3439 4.70612 28.1262 4.70612C34.3158 4.70847 40.1342 7.12066 44.5094 11.4983C48.8846 15.8759 51.2927 21.6948 51.2904 27.8831C51.2851 40.6535 40.8896 51.043 28.1171 51.043ZM40.8281 33.6976C40.1314 33.3492 36.7064 31.6648 36.0678 31.4324C35.4293 31.2001 34.9649 31.0839 34.5004 31.781C34.0361 32.4779 32.701 34.0462 32.2945 34.5108C31.8882 34.9755 31.4818 35.0336 30.7852 34.6851C30.0885 34.3366 27.8439 33.6015 25.1829 31.2294C23.112 29.3834 21.7138 27.1032 21.3074 26.4063C20.9011 25.7092 21.2642 25.3324 21.613 24.9853C21.9263 24.6734 22.3096 24.1722 22.6579 23.7655C23.0062 23.359 23.1223 23.0686 23.3545 22.604C23.5867 22.1393 23.4706 21.7326 23.2965 21.3842C23.1223 21.0357 21.7291 17.6087 21.1485 16.2147C20.5831 14.8571 20.0087 15.0408 19.5811 15.0195C19.1752 14.9993 18.7103 14.995 18.246 14.995C17.7815 14.995 17.0268 15.1693 16.3882 15.8662C15.7497 16.5633 13.9501 18.2477 13.9501 21.6746C13.9501 25.1015 16.4463 28.4121 16.7947 28.8768C17.1429 29.3415 21.707 36.3741 28.6953 39.3898C30.3574 40.1072 31.655 40.5355 32.6667 40.8566C34.3357 41.3863 35.8543 41.3115 37.0547 41.1323C38.3931 40.9325 41.1763 39.448 41.7569 37.8216C42.3375 36.1953 42.3375 34.8013 42.1633 34.5109C41.9892 34.2205 41.5248 34.0462 40.8281 33.6976Z" fill="white"/>
</g>
<defs>
<clipPath id="clip0_5_34">
<rect width="56" height="56.9333" fill="white"/>
</clipPath>
</defs>
</svg>
